# xmcd CD database file
#
# Track frame offsets:
#	150
#	21080
#	43015
#	70082
#	93525
#	119242
#	144707
#	172152
#	193545
#	216895
#
# Disc length: 3133 seconds
#
# Revision: 1
# Processed by: cddbd v1.5.1PL0 Copyright (c) Steve Scherf et al.
# Submitted via: CDex 1.51
#
DISCID=9b0c3b0a
DTITLE=Manhattan Winds - plays sting
DYEAR=1900
DGENRE=Jazz
TTITLE0=if i ever lose my faith in you
TTITLE1=little wing
TTITLE2=we'll be together
TTITLE3=if you love somebody set them free
TTITLE4=sister moon
TTITLE5=fragile
TTITLE6=be still my  beating heart
TTITLE7=fields of gold
TTITLE8=seven days
TTITLE9=whyshould i cry for
EXTD=
EXTT0=
EXTT1=
EXTT2=
EXTT3=
EXTT4=
EXTT5=
EXTT6=
EXTT7=
EXTT8=
EXTT9=
PLAYORDER=
